<svg width="189" height="73" viewBox="0 0 189 73" fill="none" xmlns="http://www.w3.org/2000/svg">
<path d="M97.8753 40.4666C97.0659 39.7693 93.9203 40.118 93.9203 36.6498V17.4554C93.9203 13.1247 92.3751 9.96845 89.8918 7.71137C86.6542 4.77532 81.7978 3.5275 76.8127 3.5275C73.4832 3.5642 70.1168 4.15141 67.1368 5.23408C61.8389 7.08746 57.7552 10.3722 57.4977 14.3909C57.3873 16.3544 57.9575 17.8591 58.9325 18.8683C62.1149 22.2998 69.6937 20.5382 70.2824 14.5377C70.7791 9.4363 74.1086 8.00497 77.1438 8.42703C79.4248 8.73898 81.1356 10.9777 80.8229 14.2624C80.3262 18.9417 69.0499 20.5199 61.4526 25.7681C60.0546 26.7406 58.7853 27.86 57.7 29.1262C54.9039 32.4109 54.1313 35.769 54.5544 38.705C55.2166 43.0357 58.5094 46.4305 62.1149 47.4397C68.59 49.2564 77.2174 45.6598 80.7125 41.2557C80.7861 43.6596 82.5336 45.7699 85.4033 46.6323C88.1074 47.403 91.9152 47.0544 96.2933 44.5771C98.464 43.3476 99.2366 41.5309 97.9121 40.4483L97.8753 40.4666ZM80.6389 37.0902C80.6389 37.2553 80.5837 37.4021 80.4918 37.5306C77.5117 41.2924 69.9697 41.5676 68.6636 36.1727C67.0264 29.1812 77.6405 21.7493 80.2526 20.0428C80.4918 19.8776 80.8229 20.0611 80.8229 20.3547L80.6389 37.0902ZM66.5298 52.376C65.7204 53.4586 65.3157 54.89 65.3157 56.6516C65.4444 61.441 62.9427 65.5882 58.5094 65.4964C38.9184 65.0927 60.0914 14.8863 40.3532 5.39923C33.9517 2.33473 25.2323 2.64669 20.2472 9.32619C20.1368 7.82147 21.3509 3.6009 18.8124 3.54585C16.5865 3.58255 15.7036 6.00479 13.1282 7.30766C9.81706 8.99589 7.03937 9.473 4.64798 10.6841C1.8335 11.8218 2.44055 14.9047 4.50082 15.969C6.57949 17.2168 7.26012 18.7032 7.18653 21.786V21.6392V38.9803C7.14974 40.9988 6.87381 42.3567 6.28516 43.2192C5.69652 44.1183 5.07108 44.7789 4.40884 45.201C3.89378 45.5497 3.52587 45.8983 3.19476 46.2837C2.84525 46.7057 2.67969 47.2379 2.67969 48.027C2.67969 48.5775 2.93722 48.9995 3.36031 49.3482C3.7834 49.6968 4.64798 49.862 5.89886 49.862H21.5717C22.8593 49.862 23.7239 49.7152 24.147 49.3482C24.5701 48.9995 24.8092 48.5224 24.846 47.9719C24.8828 47.2195 24.6437 46.6874 24.3126 46.2653C23.9814 45.8616 23.5767 45.5313 23.0985 45.1827C22.4362 44.7606 21.8108 44.1 21.2221 43.2008C20.6335 42.3384 20.3208 40.9804 20.284 38.9619C20.284 38.9619 20.2288 19.584 22.5834 13.0697C24.3677 8.13343 30.3462 6.07819 33.3998 10.2437C34.5219 11.8402 35.2578 13.9321 35.6257 16.6113C36.527 22.4466 36.1591 43.6412 36.2511 49.9721C36.2511 56.1194 38.4217 61.1841 43.0941 64.7074C51.0593 70.451 63.145 71.4052 71.4781 65.5148C74.6421 63.3311 77.5301 60.0097 77.5117 56.1745C78.0084 49.9721 69.8961 47.5682 66.5481 52.376H66.5298ZM185.437 5.85799C184.352 4.38997 182.383 3.61925 179.477 3.54585C176.957 3.61925 174.749 4.35327 172.818 5.74789C170.886 7.10581 169.212 8.68393 167.906 10.4272C166.545 12.1705 165.496 13.7303 164.761 14.923C164.687 15.0698 164.613 15.1983 164.521 15.3451V13.4183C164.521 12.5375 164.466 11.0328 164.558 9.27114C164.65 7.76642 165.68 3.50915 163.105 3.4541C160.861 3.4908 159.978 5.93139 157.384 7.25261C154.055 8.95919 151.258 9.4363 148.849 10.6474C146.016 11.8035 146.623 14.8863 148.683 15.969C150.78 17.2352 151.461 18.7215 151.387 21.8227V21.6392V38.9619C151.35 40.9804 151.074 42.4118 150.486 43.2559C149.897 44.155 149.29 44.7973 148.628 45.2377C148.131 45.5864 147.745 45.935 147.432 46.3204C147.064 46.7608 146.899 47.2746 146.917 48.0637C146.917 48.6142 147.175 49.0362 147.598 49.3849C148.021 49.7335 148.885 49.8803 150.118 49.8803H165.717C167.005 49.8803 167.851 49.7335 168.274 49.3849C168.697 49.0362 168.936 48.5591 168.955 48.027C168.992 47.2746 168.752 46.7424 168.421 46.3387C168.09 45.935 167.685 45.6047 167.226 45.2561C166.563 44.834 165.938 44.1734 165.368 43.2742C164.779 42.4301 164.466 40.9804 164.429 38.9803C164.429 38.9803 164.338 32.576 164.411 30.9795C164.485 29.1996 164.613 26.9975 165.184 24.3734C165.809 21.7126 167.078 19.5473 169.102 17.8407C171.07 16.0975 174.179 15.7488 178.318 16.7214C180.452 17.1801 182.273 16.8315 183.745 15.602C185.179 14.4092 186.099 12.8678 186.485 10.9594C186.872 9.10599 186.522 7.39941 185.437 5.89469V5.85799ZM144.747 40.4666C143.937 39.7693 140.792 40.118 140.792 36.6498V17.4554C140.792 13.1247 139.246 9.96845 136.763 7.71137C133.507 4.77532 128.669 3.54585 123.666 3.54585C120.336 3.58255 116.97 4.16976 113.99 5.25243C108.692 7.10581 104.626 10.3905 104.35 14.4092C104.24 16.3727 104.81 17.8774 105.785 18.8867C108.968 22.3182 116.547 20.5566 117.135 14.556C117.632 9.45465 120.961 8.02332 123.997 8.44538C126.278 8.75733 127.988 10.9961 127.676 14.2808C127.179 18.9601 115.903 20.5382 108.305 25.7864C106.907 26.759 105.638 27.8783 104.553 29.1445C101.757 32.4292 100.984 35.7873 101.407 38.7234C102.069 43.054 105.362 46.4488 108.968 47.4581C115.443 49.2748 124.07 45.6781 127.565 41.274C127.639 43.6779 129.386 45.7882 132.256 46.6507C134.96 47.4214 138.768 47.0727 143.146 44.5954C145.317 43.366 146.089 41.5493 144.765 40.4666H144.747ZM127.51 37.0902C127.51 37.2553 127.455 37.4021 127.363 37.5306C124.383 41.2924 116.841 41.5676 115.535 36.1727C113.898 29.1812 124.512 21.7493 127.124 20.0428C127.363 19.8776 127.694 20.0611 127.694 20.3547L127.51 37.0902Z" fill="white"/>
<path d="M124.604 61.9728C127.956 61.9728 130.674 59.2616 130.674 55.9172C130.674 52.5728 127.956 49.8616 124.604 49.8616C121.251 49.8616 118.533 52.5728 118.533 55.9172C118.533 59.2616 121.251 61.9728 124.604 61.9728Z" fill="#00CCDD"/>
<path d="M97.8712 61.9513C101.224 61.9513 103.942 59.2401 103.942 55.8957C103.942 52.5513 101.224 49.8401 97.8712 49.8401C94.5186 49.8401 91.8008 52.5513 91.8008 55.8957C91.8008 59.2401 94.5186 61.9513 97.8712 61.9513Z" fill="#00CCDD"/>
</svg>
